<?xml version="1.0" encoding="UTF-8"?>
<svg id="Calque_2" data-name="Calque 2" xmlns="http://www.w3.org/2000/svg" version="1.1" viewBox="0 0 100 100">
  <defs>
    <style>
      .cls-1 {
        fill: #fff;
      }

      .cls-1, .cls-2 {
        stroke-width: 0px;
      }

      .cls-2 {
        fill: #e41019;
      }
    </style>
  </defs>
  <g>
    <g>
      <circle class="cls-2" cx="50" cy="50.1" r="48"/>
      <path class="cls-2" d="M68.4,64.6c-.6,0-1,.4-1.1,1h2.1c-.1-.6-.4-1-1-1Z"/>
      <path class="cls-2" d="M58,64.6h-.6v2.7c.2,0,.4,0,.6,0,.4,0,.7,0,1-.3.3-.2.4-.6.4-1.1s-.1-.8-.4-1c-.2-.2-.5-.4-1-.4Z"/>
      <path class="cls-2" d="M97.3,50.1c-.9,0-1.3-.5-2.3-.5s-1,.2-1,.7.4.7.9.9c.7.3,1.4.5,2,.8s.7.4.9.7c0-.9,0-1.7,0-2.6"/>
      <path class="cls-2" d="M71.6,49.9c-1.6,0-2.6,1.2-2.6,2.8s1,2.8,2.6,2.8,2.6-1.2,2.6-2.8-1-2.8-2.6-2.8Z"/>
    </g>
    <g>
      <circle class="cls-1" cx="50" cy="50.1" r="48"/>
      <path class="cls-2" d="M68.4,64.6c-.6,0-1,.4-1.1,1h2.1c-.1-.6-.4-1-1-1Z"/>
      <path class="cls-2" d="M58,64.6h-.6v2.7c.2,0,.4,0,.6,0,.4,0,.7,0,1-.3.3-.2.4-.6.4-1.1s-.1-.8-.4-1c-.2-.2-.5-.4-1-.4Z"/>
      <path class="cls-2" d="M97.3,50.1c-.9,0-1.3-.5-2.3-.5s-1,.2-1,.7.4.7.9.9c.7.3,1.4.5,2,.8s.7.4.9.7c0-.9,0-1.7,0-2.6"/>
      <path class="cls-2" d="M71.6,49.9c-1.6,0-2.6,1.2-2.6,2.8s1,2.8,2.6,2.8,2.6-1.2,2.6-2.8-1-2.8-2.6-2.8Z"/>
    </g>
  </g>
  <g>
    <path class="cls-2" d="M26.2,65.4c-.5,0-.8.3-.8.7h1.6c0-.4-.3-.7-.8-.7Z"/>
    <path class="cls-2" d="M33.7,65.4c-.5,0-.8.3-.8.7h1.6c0-.4-.4-.7-.8-.7Z"/>
    <path class="cls-2" d="M90.8,56c0-.6.5-1.1,1.1-1.1.9,0,1.3.7,2.6.7s1.2-.3,1.2-.8-.4-.7-.9-.9c-.6-.3-1.4-.5-2.1-.9-1.1-.5-1.6-1.4-1.6-2.6,0-1.8,1.4-3,3.9-3s2.4.2,3,.7c-1.1-25.6-22.2-46-48-46S2,23.6,2,50.1s21.5,48,48,48,44.2-17.9,47.5-41.2c-.7.6-1.7.9-2.9.9-2,0-3.8-.4-3.8-1.8ZM25.4,63.4c0-.1,0-.1.2-.2l.8-.6c0,0,.3,0,.5,0,.2.1.3.4.2.6,0,0-.1,0-.2.2l-.9.5c-.2,0-.3,0-.4,0-.2-.1-.3-.3-.2-.5ZM19.9,68.3c-.4.1-.9.2-1.4.2-1.8,0-3.1-1.2-3.1-3s1.5-3,3.1-3,1,0,1.3.2c.3,0,.5.3.5.6s-.3.6-.6.6-.5-.3-1.3-.3-1.8.8-1.8,1.9.8,1.9,1.8,1.9,1-.3,1.4-.3.6.2.6.6-.2.5-.5.6ZM23.7,65.7c-.3,0-.4-.2-.7-.2-.6,0-.7.5-.7,1.1v1.5c0,.3-.3.6-.6.6s-.6-.2-.6-.6v-3c0-.3.2-.6.6-.6s.5.2.6.4c.2-.3.6-.4,1-.4s.5,0,.7.2c.2,0,.2.2.2.4,0,.3-.2.6-.5.6ZM27.6,66.9h-2.2c0,.5.5.8,1,.8s.8-.3,1.1-.3.4.2.4.5-.2.4-.5.5c-.4,0-.7.2-1.1.2-.7,0-1.2-.2-1.6-.6-.3-.4-.5-.9-.5-1.5s.2-1.1.6-1.5c.3-.3.8-.6,1.5-.6s1.1.2,1.4.5c.4.4.5.9.5,1.2,0,.5-.3.8-.6.8ZM31.1,68.4c-.2,0-.6.2-.8.2-.9,0-1.3-.6-1.3-1.4v-1.7h-.3c-.2,0-.4-.2-.4-.4s.2-.4.4-.4h.3v-.6c0-.3.2-.6.6-.6s.6.2.6.6v.6h.8c.2,0,.4.2.4.4s-.2.4-.4.4h-.8v1.6c0,.4,0,.5.4.5s.4-.2.7-.2.4.2.4.5c0,.2-.3.4-.6.5ZM35,66.9h-2.2c.1.5.5.8,1,.8s.8-.3,1.1-.3.4.2.4.5-.2.4-.5.5c-.4,0-.7.2-1.1.2-.7,0-1.2-.2-1.6-.6-.4-.4-.6-.9-.6-1.5s.2-1.1.6-1.5.8-.6,1.5-.6,1.1.2,1.4.5c.4.4.5.9.5,1.2.1.5,0,.8-.5.8ZM37.4,68c0,.3-.3.6-.6.6s-.6-.2-.6-.6v-3c0-.3.2-.6.6-.6s.6.2.6.6v3ZM36.8,63.5c-.4,0-.7-.3-.7-.7s.3-.7.7-.7.7.3.7.7-.4.7-.7.7ZM39.4,68c0,.3-.3.6-.6.6s-.6-.2-.6-.6v-4.9c0-.3.3-.6.6-.6s.6.2.6.6v4.9ZM49.5,68.6h-4.4c-.5,0-.8-.3-.8-.8v-6c0-.4.3-.8.8-.8h4.3c.4,0,.7.3.7.7s-.3.7-.7.7h-3.5v1.6h3.1c.4,0,.6.4.6.8s-.3.7-.7.7h-3v1.7h3.6c.4,0,.7.3.7.7s-.3.7-.7.7ZM54.6,68.7c-.4,0-.6-.3-.8-.5l-.9-1.2-1,1.2c-.1.2-.3.4-.7.4s-.8-.3-.8-.7.2-.5.4-.7l1.2-1.3-1.3-1.2c-.1-.2-.3-.3-.3-.5,0-.4.3-.7.8-.7s.6.2.7.4l.9,1.1.9-1.1c.2-.2.4-.4.7-.4s.7.3.7.7,0,.4-.2.5l-1.2,1.3,1.3,1.5c.2.2.3.3.3.5,0,.4-.3.7-.7.7ZM54.3,57.8c-.6,0-1-.3-1.3-.7l-4.2-5.7-1.3,1.3v3.6c0,.8-.8,1.5-1.6,1.5s-1.6-.7-1.6-1.5v-12.2c0-.9.7-1.5,1.6-1.5s1.6.7,1.6,1.5v4.6l5.3-5.6c.3-.3.7-.5,1.1-.5.8,0,1.5.7,1.5,1.5s-.1.7-.4,1l-4.1,4.1,4.7,6.2c.2.2.3.5.3.8,0,.8-.7,1.6-1.6,1.6ZM60.2,67.9c-.5.6-1.3.8-2.1.8s-.5,0-.8,0v1.9c0,.4-.3.7-.7.7s-.7-.3-.7-.7v-6c0-.6.3-.9.9-1,.3,0,.7,0,1.1,0,.9,0,1.7.3,2.3.8.4.4.7,1,.7,1.8-.1.9-.3,1.5-.7,1.9ZM60.6,52.6v3.7c0,.8-.7,1.4-1.4,1.4s-1.4-.6-1.4-1.4v-7.7c0-.8.5-1.2,1.3-1.2s1.3.5,1.4,1.1c.6-.7,1.5-1.1,2.5-1.1s1.3,0,1.8.4.8.7.8,1.3-.5,1.3-1.2,1.3-1-.5-1.9-.5c-1.5,0-1.9,1.4-1.9,2.7ZM65.1,65c-.4,0-.5-.3-1-.3s-1,.7-1,1.4v1.9c0,.4-.3.7-.7.7s-.7-.3-.7-.7v-3.8c0-.4.3-.7.7-.7s.6.3.7.6c.3-.4.7-.6,1.2-.6s.6.1.9.2.4.4.4.7c.1.3-.2.6-.5.6ZM70.1,66.5h-2.8c.1.7.6,1,1.3,1s1.1-.3,1.4-.3.5.3.5.6-.2.5-.6.7c-.5.2-.9.2-1.4.2-.8,0-1.5-.3-2-.7-.5-.5-.7-1.2-.7-1.9s.3-1.4.7-1.9c.4-.4,1.1-.7,1.9-.7s1.4.3,1.8.7.6,1.1.6,1.6-.3.7-.7.7ZM73.3,65.4c.4,0,.7.2,1,.4.6.3.8.7.8,1.3.1.9-.7,1.6-2,1.6s-1.9-.2-1.9-.9.2-.6.6-.6.7.3,1.3.3.6,0,.6-.4-.2-.3-.5-.5c-.3-.1-.7-.3-1.1-.4-.5-.3-.8-.7-.8-1.3,0-.9.7-1.5,2-1.5s1.8.2,1.8.8-.2.6-.6.6-.7-.2-1.2-.2-.5,0-.5.4.2.3.5.4ZM71.6,57.8c-3,0-5.4-1.9-5.4-5.2s2.4-5.2,5.4-5.2,5.4,2,5.4,5.2-2.4,5.2-5.4,5.2ZM77.6,65.4c.4,0,.7.2,1,.4.6.3.8.7.8,1.3,0,.9-.8,1.6-2,1.6s-1.9-.2-1.9-.9.2-.6.6-.6.7.3,1.3.3.6,0,.6-.4-.2-.3-.5-.5c-.3-.1-.7-.3-1.1-.4-.5-.3-.8-.7-.8-1.3,0-.9.7-1.5,2-1.5s1.8.2,1.8.8-.2.6-.6.6-.7-.2-1.2-.2-.5,0-.5.4.2.3.5.4ZM88.8,53.3v.2c0,1.3,0,2-.7,2.8-.9,1.1-2.3,1.6-4.1,1.6s-3.2-.5-4.1-1.6c-.6-.7-.9-1.7-.9-3v-4.5c0-.8.6-1.4,1.4-1.4s1.4.6,1.4,1.4v4.3c0,.6.1,1,.3,1.4.3.5.9.9,1.8.9s1.5-.4,1.8-.9c.2-.4.3-.8.3-1.4v-4.3c0-.8.6-1.4,1.4-1.4s1.4.6,1.4,1.4v4.5Z"/>
  </g>
</svg>